{"accessors" : [{"bufferView" : 0, "byteOffset" : 0, "componentType" : 5123, "count" : 10146, "type" : "SCALAR", "max" : [8343], "min" : [0]}, {"bufferView" : 1, "byteOffset" : 0, "componentType" : 5126, "count" : 8344, "type" : "VEC3", "max" : [52.02214431762695, 159.99720764160156, 8.46399974822998], "min" : [-52.86351776123047, 0, -8.464574813842773], "name" : "POSITION"}, {"bufferView" : 1, "byteOffset" : 12, "componentType" : 5126, "count" : 8344, "type" : "VEC2", "max" : [5.148787975311279, 7.968700885772705], "min" : [-5.148787975311279, -22.4516544342041], "name" : "TEXCOORD_0"}, {"bufferView" : 1, "byteOffset" : 20, "componentType" : 5126, "count" : 8344, "type" : "VEC3", "max" : [0.9993959069252014, 0.9999815225601196, 1.0000044107437134], "min" : [-0.9993951916694641, -1.0000044107437134, -1.0000044107437134], "name" : "NORMAL"}, {"bufferView" : 0, "byteOffset" : 20292, "componentType" : 5123, "count" : 660, "type" : "SCALAR", "max" : [578], "min" : [0]}, {"bufferView" : 2, "byteOffset" : 0, "componentType" : 5126, "count" : 579, "type" : "VEC3", "max" : [51.01165771484375, 158.99440002441406, -2.5], "min" : [-51.7961311340332, 70.17403411865234, -3], "name" : "POSITION"}, {"bufferView" : 2, "byteOffset" : 12, "componentType" : 5126, "count" : 579, "type" : "VEC2", "max" : [7.096875190734863, 15.097762107849121], "min" : [-26.17299461364746, -15.953781127929688], "name" : "TEXCOORD_0"}, {"bufferView" : 2, "byteOffset" : 20, "componentType" : 5126, "count" : 579, "type" : "VEC3", "max" : [1.0000044107437134, 1.0000019073486328, 1.0000044107437134], "min" : [-1.0000026226043701, -1.0000044107437134, -1.0000044107437134], "name" : "NORMAL"}, {"bufferView" : 0, "byteOffset" : 21612, "componentType" : 5123, "count" : 660, "type" : "SCALAR", "max" : [578], "min" : [0]}, {"bufferView" : 3, "byteOffset" : 0, "componentType" : 5126, "count" : 579, "type" : "VEC3", "max" : [51.01165771484375, 158.99440002441406, 3], "min" : [-51.7961311340332, 70.17403411865234, 2.5], "name" : "POSITION"}, {"bufferView" : 3, "byteOffset" : 12, "componentType" : 5126, "count" : 579, "type" : "VEC2", "max" : [7.096875190734863, 15.097762107849121], "min" : [-26.17299461364746, -15.953781127929688], "name" : "TEXCOORD_0"}, {"bufferView" : 3, "byteOffset" : 20, "componentType" : 5126, "count" : 579, "type" : "VEC3", "max" : [1.0000044107437134, 1.0000019073486328, 1.0000044107437134], "min" : [-1.0000026226043701, -1.0000044107437134, -1.0000044107437134], "name" : "NORMAL"}], "asset" : {"generator" : "Aspose.3D 24.1.0", "version" : "2.0"}, "buffers" : [{"uri" : "data:application/octet-stream;base64,", "byteLength" : 389860}], "bufferViews" : [{"buffer" : 0, "byteOffset" : 0, "byteLength" : 22932, "target" : 34963}, {"buffer" : 0, "byteOffset" : 22936, "byteLength" : 324672, "byteStride" : 32, "target" : 34962}, {"buffer" : 0, "byteOffset" : 347612, "byteLength" : 21120, "byteStride" : 32, "target" : 34962}, {"buffer" : 0, "byteOffset" : 368736, "byteLength" : 21120, "byteStride" : 32, "target" : 34962}], "meshes" : [{"primitives" : [{"attributes" : {"POSITION" : 1, "TEXCOORD_0" : 2, "NORMAL" : 3}, "indices" : 0, "mode" : 4}], "name" : ""}, {"primitives" : [{"attributes" : {"POSITION" : 5, "TEXCOORD_0" : 6, "NORMAL" : 7}, "indices" : 4, "mode" : 4}], "name" : ""}, {"primitives" : [{"attributes" : {"POSITION" : 9, "TEXCOORD_0" : 10, "NORMAL" : 11}, "indices" : 8, "mode" : 4}], "name" : ""}], "nodes" : [{"mesh" : 0, "name" : "Body2"}, {"mesh" : 1, "name" : "Body3"}, {"mesh" : 2, "name" : "Body4"}], "scene" : 0, "scenes" : [{"nodes" : [0, 1, 2]}]}